<svg width="87" height="49" viewBox="0 0 87 49" fill="none" xmlns="http://www.w3.org/2000/svg">
<path d="M39.8219 39.0435L39.9084 39.536L39.8219 39.0435ZM5.4391 39.2987C5.29818 39.0612 5.37645 38.7544 5.61393 38.6135L9.48383 36.317C9.72131 36.1761 10.0281 36.2544 10.169 36.4918C10.3099 36.7293 10.2316 37.0361 9.99416 37.177L6.55424 39.2183L8.59556 42.6582C8.73649 42.8957 8.65822 43.2025 8.42074 43.3434C8.18326 43.4843 7.87651 43.406 7.73559 43.1686L5.4391 39.2987ZM80.7289 1C81.1447 1.27771 81.1447 1.27773 81.1446 1.27775C81.1446 1.27777 81.1446 1.2778 81.1446 1.27783C81.1445 1.27789 81.1445 1.27798 81.1444 1.27808C81.1443 1.2783 81.1441 1.2786 81.1438 1.279C81.1433 1.27979 81.1425 1.28094 81.1415 1.28245C81.1395 1.28546 81.1365 1.28991 81.1326 1.29577C81.1247 1.30748 81.113 1.32485 81.0976 1.34772C81.0668 1.39346 81.021 1.46124 80.9607 1.5499C80.8402 1.72723 80.6617 1.98813 80.4292 2.32347C79.9642 2.99415 79.2834 3.96271 78.4184 5.15618L77.6087 4.56935C78.4692 3.3821 79.146 2.41928 79.6073 1.75375C79.838 1.421 80.0148 1.16259 80.1338 0.987636C80.1933 0.90016 80.2383 0.83355 80.2683 0.788946C80.2833 0.766643 80.2946 0.749843 80.3021 0.738686C80.3059 0.733107 80.3086 0.72894 80.3105 0.726201C80.3114 0.724831 80.3121 0.723819 80.3125 0.723167C80.3127 0.72284 80.3129 0.722604 80.313 0.722457C80.313 0.722384 80.3131 0.722333 80.3131 0.722305C80.3131 0.722291 80.3131 0.722287 80.3131 0.72228C80.3131 0.722282 80.3131 0.722289 80.7289 1ZM75.5802 8.97528C73.8879 11.1975 71.8754 13.7461 69.637 16.4041L68.8721 15.76C71.0981 13.1166 73.1004 10.5811 74.7846 8.36943L75.5802 8.97528ZM66.5213 20.0003C64.4433 22.3287 62.2286 24.6682 59.9368 26.881L59.2422 26.1616C61.5127 23.9693 63.7102 21.6483 65.7752 19.3344L66.5213 20.0003ZM56.4255 30.1084C53.914 32.2959 51.3435 34.2653 48.7871 35.8454L48.2613 34.9948C50.7593 33.4508 53.2857 31.517 55.7688 29.3543L56.4255 30.1084ZM44.5308 38.0984C42.9699 38.7756 41.423 39.2699 39.9084 39.536L39.7354 38.551C41.1577 38.3012 42.6287 37.8335 44.1328 37.181L44.5308 38.0984ZM39.9084 39.536C37.9617 39.878 36.0733 40.1541 34.2501 40.3738L34.1304 39.381C35.9363 39.1634 37.8068 38.8899 39.7354 38.551L39.9084 39.536ZM28.5516 40.9023C24.2122 41.1837 20.3604 41.1556 17.1146 40.9838L17.1674 39.9852C20.3774 40.1551 24.1899 40.183 28.4868 39.9044L28.5516 40.9023ZM11.4127 40.4914C9.60231 40.2703 8.18997 40.0305 7.22806 39.8455C6.74708 39.7531 6.37869 39.6742 6.12942 39.6183C6.00478 39.5903 5.90992 39.568 5.84566 39.5526C5.81353 39.5448 5.78905 39.5388 5.77232 39.5347C5.76395 39.5326 5.75752 39.531 5.75304 39.5299C5.7508 39.5293 5.74905 39.5289 5.74779 39.5286C5.74716 39.5284 5.74665 39.5283 5.74626 39.5282C5.74607 39.5281 5.7459 39.5281 5.74578 39.5281C5.74571 39.528 5.74563 39.528 5.7456 39.528C5.74554 39.528 5.74547 39.528 5.86909 39.0435C5.99271 38.559 5.99266 38.559 5.99263 38.559C5.99262 38.559 5.9926 38.559 5.99259 38.559C5.99258 38.559 5.99261 38.559 5.99265 38.559C5.99276 38.559 5.99298 38.5591 5.99333 38.5592C5.99402 38.5594 5.99521 38.5597 5.99688 38.5601C6.00022 38.5609 6.0055 38.5622 6.01272 38.564C6.02715 38.5676 6.04931 38.573 6.0791 38.5802C6.13868 38.5945 6.22876 38.6157 6.34854 38.6426C6.58809 38.6964 6.94639 38.7731 7.4169 38.8635C8.35795 39.0445 9.74771 39.2806 11.5339 39.4988L11.4127 40.4914ZM39.8219 39.0435L39.9949 40.0284L39.9949 40.0284L39.8219 39.0435ZM5.00911 39.5538C4.72727 39.0789 4.88381 38.4654 5.35876 38.1835L13.0986 33.5906C13.5735 33.3087 14.187 33.4652 14.4689 33.9402C14.7507 34.4152 14.5942 35.0287 14.1192 35.3105L7.2394 39.3931L11.322 46.273C11.6039 46.7479 11.4473 47.3614 10.9724 47.6433C10.4974 47.9251 9.88393 47.7686 9.60208 47.2936L5.00911 39.5538ZM80.7289 1C81.5605 1.55542 81.5604 1.55545 81.5604 1.55549C81.5604 1.55551 81.5604 1.55555 81.5603 1.55559C81.5603 1.55567 81.5602 1.55577 81.5601 1.5559C81.56 1.55615 81.5597 1.55649 81.5595 1.55692C81.5589 1.55778 81.5581 1.55899 81.557 1.56057C81.5549 1.56372 81.5518 1.56831 81.5478 1.5743C81.5398 1.5863 81.5279 1.60395 81.5123 1.6271C81.4811 1.67342 81.4349 1.74177 81.3742 1.83103C81.2528 2.00955 81.0735 2.27169 80.8401 2.60834C80.3734 3.28159 79.6905 4.25302 78.8233 5.44959L77.2039 4.27593C78.0621 3.09179 78.7368 2.13184 79.1964 1.46889C79.4262 1.13743 79.6021 0.880269 79.7203 0.706503C79.7794 0.619622 79.824 0.553595 79.8537 0.50956C79.8685 0.487542 79.8796 0.471024 79.8869 0.460146C79.8905 0.454707 79.8932 0.450678 79.895 0.448077C79.8958 0.446777 79.8965 0.445834 79.8969 0.44525C79.8971 0.444958 79.8972 0.444756 79.8973 0.444643C79.8973 0.444587 79.8973 0.444554 79.8973 0.444543C79.8973 0.444537 79.8973 0.444546 79.8973 0.444543C79.8973 0.444558 79.8973 0.444578 80.7289 1ZM75.978 9.2782C74.2817 11.5057 72.264 14.0608 70.0194 16.7262L68.4896 15.4379C70.7095 12.8019 72.7066 10.2729 74.3868 8.06651L75.978 9.2782ZM66.8944 20.3332C64.8099 22.6689 62.5865 25.0177 60.2842 27.2407L58.8949 25.8019C61.1548 23.6199 63.3437 21.3081 65.4022 19.0015L66.8944 20.3332ZM56.7539 30.4854C54.2281 32.6854 51.6356 34.6726 49.0499 36.2707L47.9984 34.5694C50.4672 33.0435 52.9716 31.1275 55.4404 28.9773L56.7539 30.4854ZM44.7298 38.5571C43.1406 39.2466 41.5556 39.7542 39.9949 40.0284L39.6489 38.0586C41.0251 37.8168 42.4581 37.3625 43.9338 36.7223L44.7298 38.5571ZM39.9949 40.0284C38.0391 40.372 36.1418 40.6494 34.3099 40.8702L34.0706 38.8846C35.8678 38.668 37.7294 38.3958 39.6489 38.0586L39.9949 40.0284ZM28.5839 41.4012C24.2234 41.684 20.3519 41.6558 17.0882 41.4831L17.1938 39.4859C20.3859 39.6548 24.1787 39.6827 28.4545 39.4054L28.5839 41.4012ZM11.3521 40.9877C9.52961 40.7651 8.10598 40.5235 7.13363 40.3366C6.64743 40.243 6.27398 40.1632 6.01986 40.1061C5.89279 40.0776 5.79555 40.0547 5.72894 40.0387C5.69564 40.0307 5.67 40.0245 5.65211 40.02C5.64317 40.0178 5.63617 40.0161 5.63112 40.0148C5.6286 40.0142 5.62656 40.0136 5.62502 40.0133C5.62425 40.0131 5.6236 40.0129 5.62307 40.0128C5.62281 40.0127 5.62257 40.0126 5.62237 40.0126C5.62227 40.0126 5.62214 40.0125 5.62209 40.0125C5.62197 40.0125 5.62185 40.0125 5.86909 39.0435C6.11633 38.0745 6.11623 38.0745 6.11615 38.0745C6.11612 38.0745 6.11604 38.0745 6.116 38.0745C6.11592 38.0744 6.11587 38.0744 6.11585 38.0744C6.11581 38.0744 6.1159 38.0744 6.11611 38.0745C6.11651 38.0746 6.11741 38.0748 6.11879 38.0752C6.12156 38.0759 6.12628 38.077 6.13292 38.0787C6.1462 38.082 6.1672 38.0871 6.19582 38.094C6.25306 38.1077 6.34075 38.1284 6.4581 38.1547C6.6928 38.2074 7.04605 38.2831 7.51133 38.3725C8.44194 38.5515 9.82041 38.7858 11.5945 39.0025L11.3521 40.9877Z" fill="#FB4E4D"/>
</svg>
