<?xml version="1.0" encoding="UTF-8"?>
<svg xmlns="http://www.w3.org/2000/svg" xmlns:xlink="http://www.w3.org/1999/xlink" width="512" height="512" viewBox="0 0 128 128"><defs><linearGradient id="a" x1="106.199" y1="90.326" x2="21.801" y2="5.928" gradientUnits="userSpaceOnUse"><stop offset="0" stop-color="#ec5569"/><stop offset="1" stop-color="#fdd143"/></linearGradient></defs><path d="M66.027,81.175A2.027,2.027,0,1,1,64,79.148,2.028,2.028,0,0,1,66.027,81.175ZM47.725,74a2.027,2.027,0,1,0,2.027-2.027A2.028,2.028,0,0,0,47.725,74Zm32.55,0a2.027,2.027,0,1,0-2.027,2.027A2.028,2.028,0,0,0,80.275,74ZM53.408,101.543a1.75,1.75,0,1,0-3.055,1.709,16.4,16.4,0,0,1,1.862,5.3A75.413,75.413,0,0,1,53.2,121a1.75,1.75,0,0,0,3.5,0,78.827,78.827,0,0,0-1.034-13.03A19.849,19.849,0,0,0,53.408,101.543Zm-6.817-7.119-.319-.193C35.453,87.85,22.555,76.567,22.555,59.057c0-21.268,22.326-28.815,41.445-28.815,1.626,0,3.289.06,4.943.177a1.75,1.75,0,0,0,.246-3.492c-1.735-.122-3.481-.185-5.189-.185-10.92,0-21.612,2.462-29.337,6.755a37.283,37.283,0,0,0-3.228,2.023,15.562,15.562,0,0,1-.35-8.4A81.49,81.49,0,0,0,32.954,7a1.75,1.75,0,0,0-3.5,0,78.7,78.7,0,0,1-1.8,19.42,18.428,18.428,0,0,0,.9,11.355A29.379,29.379,0,0,0,25.212,41.2c-2.528-4.4-3.193-9.657-1.967-15.675A74.283,74.283,0,0,0,24.954,7a1.75,1.75,0,0,0-3.5,0,71.519,71.519,0,0,1-1.639,17.824c-1.529,7.51-.451,14.05,3.2,19.465a27.932,27.932,0,0,0-3.96,14.768C19.055,78.22,32.889,90.4,44.5,97.249l.25.151a1.75,1.75,0,0,0,1.842-2.976ZM78.212,31.715c1.448.31,2.862.667,4.2,1.06a1.746,1.746,0,0,0,2.172-1.185A1.75,1.75,0,0,0,83.4,29.418c-1.423-.418-2.922-.8-4.456-1.125a1.75,1.75,0,1,0-.732,3.422ZM104.98,44.3c3.655-5.415,4.734-11.959,3.2-19.472A71.519,71.519,0,0,1,106.546,7a1.75,1.75,0,0,0-3.5,0,74.283,74.283,0,0,0,1.709,18.523c1.227,6.023.56,11.286-1.973,15.685a29.271,29.271,0,0,0-3.333-3.445,18.436,18.436,0,0,0,.9-11.343A78.7,78.7,0,0,1,98.546,7a1.75,1.75,0,0,0-3.5,0,81.49,81.49,0,0,0,1.869,20.119,15.562,15.562,0,0,1-.35,8.4,38.33,38.33,0,0,0-4.185-2.539,1.75,1.75,0,0,0-1.619,3.1c9.744,5.084,14.684,12.812,14.684,22.972,0,17.51-12.9,28.793-23.718,35.174a19.678,19.678,0,0,0-9.393,13.738A78.74,78.74,0,0,0,71.3,121a1.75,1.75,0,0,0,3.5,0,75.434,75.434,0,0,1,.985-12.45,16.182,16.182,0,0,1,7.72-11.3c11.606-6.846,25.44-19.027,25.44-38.19A27.924,27.924,0,0,0,104.98,44.3ZM70.13,104.835A128.712,128.712,0,0,0,69.142,121a1.75,1.75,0,0,1-3.5,0,132.311,132.311,0,0,1,1.015-16.606,24.8,24.8,0,0,1,11.722-18.08C85.5,81.949,93.772,74.931,96.224,65A28.478,28.478,0,0,0,82.775,63.03a23.154,23.154,0,0,0-7.643,2.42c-3.05,1.395-6.2,2.836-11.132,2.836s-8.082-1.441-11.132-2.836a23.155,23.155,0,0,0-7.642-2.42A28.52,28.52,0,0,0,31.786,65c1.614,6.491,6.3,14.243,17.835,21.314a24.8,24.8,0,0,1,11.722,18.08A132.311,132.311,0,0,1,62.358,121a1.75,1.75,0,0,1-3.5,0,128.712,128.712,0,0,0-.988-16.165A21.307,21.307,0,0,0,47.793,89.3c-13.24-8.113-20.238-18.57-20.238-30.241C27.555,35.91,60.269,35.242,64,35.242s36.445.668,36.445,23.815c0,11.671-7,22.128-20.238,30.241A21.307,21.307,0,0,0,70.13,104.835Zm26.7-43.364q.116-1.182.116-2.414c0-19.744-29.573-20.315-32.945-20.315s-32.945.571-32.945,20.315c0,.767.039,1.574.122,2.412A31.655,31.655,0,0,1,45.594,59.55a26.322,26.322,0,0,1,8.729,2.717c2.834,1.3,5.512,2.519,9.677,2.519s6.843-1.223,9.677-2.519a26.313,26.313,0,0,1,8.73-2.717A31.661,31.661,0,0,1,96.829,61.471Z" fill="url(#a)"/></svg>
