<?xml version="1.0" encoding="iso-8859-1"?>
<!-- Generator: Adobe Illustrator 19.0.0, SVG Export Plug-In . SVG Version: 6.00 Build 0)  -->
<svg xmlns="http://www.w3.org/2000/svg" xmlns:xlink="http://www.w3.org/1999/xlink" version="1.1" id="Layer_1" x="0px" y="0px" viewBox="0 0 512 512" style="enable-background:new 0 0 512 512;" xml:space="preserve" width="512" height="512">
<g>
	<path style="fill:#FF637B;" d="M377.199,28.613c-62.399-1.201-100.8,41.999-121.199,80.4c-20.4-38.101-59.399-80.4-120-80.4h-1.199   c-71.1,0.599-130.901,61.5-134.5,138.6C-4.2,262.012,71.201,325.313,183.999,421.612c25.682,21.73,31.371,26.742,72.001,61.8   c40.175-34.666,46.144-39.923,72.001-61.8c112.798-96.299,188.2-159.6,183.699-254.399C508.1,90.112,448.299,29.211,377.199,28.613   z"/>
	<path style="fill:#E63950;" d="M511.7,167.213c4.501,94.799-70.901,158.101-183.699,254.399   c-25.682,21.73-31.371,26.742-72.001,61.8V109.012c20.4-38.401,58.801-81.601,121.199-80.4   C448.299,29.211,508.1,90.112,511.7,167.213z"/>
	<g>
		<polygon style="fill:#FFCEBF;" points="512,268.613 512,298.613 345.099,298.613 315.7,251.212 256,340.612 197.8,253.312     175.3,298.613 0,298.613 0,268.613 156.7,268.613 194.2,193.913 256,286.612 316.3,196.011 361.601,268.613   "/>
	</g>
	<polygon style="fill:#FFB99C;" points="512,268.613 512,298.613 345.099,298.613 315.7,251.212 256,340.612 256,286.612    316.3,196.011 361.601,268.613  "/>
</g>















</svg>
