<svg width="60" height="60" viewBox="0 0 60 60" fill="none" xmlns="http://www.w3.org/2000/svg">
<path d="M33.5175 30.016L59.237 4.2965C60.2297 3.3378 60.2572 1.75598 59.2985 0.763315C58.3398 -0.22935 56.758 -0.256875 55.7653 0.701822C55.7445 0.721881 55.724 0.742378 55.7038 0.763315L29.9841 26.4828L4.26458 0.763169C3.27192 -0.195529 1.6901 -0.168004 0.731399 0.824661C-0.203873 1.79302 -0.203873 3.32814 0.731399 4.2965L26.4509 30.016L0.731399 55.7356C-0.244136 56.7112 -0.244136 58.2931 0.731399 59.2687C1.70708 60.2441 3.2889 60.2441 4.26458 59.2687L29.9841 33.5492L55.7037 59.2687C56.6963 60.2274 58.2781 60.1999 59.2368 59.2073C60.172 58.2389 60.172 56.7038 59.2368 55.7356L33.5175 30.016Z" fill="#E34946"/>
</svg>
