<svg width="1366" height="532" viewBox="0 0 1366 532" fill="none" xmlns="http://www.w3.org/2000/svg">
<g filter="url(#filter0_i)">
<path d="M0 0C564.959 43.5685 866.022 44.2372 1373 0V532H0V0Z" fill="#ECF4FF"/>
</g>
<path d="M1070.79 283.702C930.01 360.62 745 528 745 528H1366V162C1366 162 1179.59 224.254 1070.79 283.702Z" fill="url(#paint0_linear)" fill-opacity="0.1"/>
<path d="M481.068 356.816C328.606 366.201 -3 452 -3 452V2C-3 2 295.657 23.2785 481.068 30.5998C674.96 38.256 978 30.5998 978 30.5998C978 30.5998 895.099 173.599 785.993 170.471C676.887 167.343 633.53 347.432 481.068 356.816Z" fill="url(#paint1_linear)" fill-opacity="0.1"/>
<path d="M335.564 261.928C211.065 318.453 0 368 0 368V1C0 1 332.715 26.7894 546.422 30.9866C665.732 33.3298 852 30.9866 852 30.9866C852 30.9866 832.39 82.3816 807.734 107.072C753.696 161.186 686.794 130.128 611.155 151.38C545.646 169.787 508.165 179.237 445.991 205.983C401.446 225.145 379.677 241.9 335.564 261.928Z" fill="url(#paint2_linear)" fill-opacity="0.1"/>
<path d="M1159.62 436.551C1088.16 498.85 931 530 931 530H1373V251C1373 251 1301.89 258.697 1263.93 280.203C1198.37 317.349 1215.78 387.584 1159.62 436.551Z" fill="url(#paint3_linear)" fill-opacity="0.1"/>
<defs>
<filter id="filter0_i" x="0" y="0" width="1373" height="532" filterUnits="userSpaceOnUse" color-interpolation-filters="sRGB">
<feFlood flood-opacity="0" result="BackgroundImageFix"/>
<feBlend mode="normal" in="SourceGraphic" in2="BackgroundImageFix" result="shape"/>
<feColorMatrix in="SourceAlpha" type="matrix" values="0 0 0 0 0 0 0 0 0 0 0 0 0 0 0 0 0 0 127 0" result="hardAlpha"/>
<feOffset/>
<feGaussianBlur stdDeviation="16.5"/>
<feComposite in2="hardAlpha" operator="arithmetic" k2="-1" k3="1"/>
<feColorMatrix type="matrix" values="0 0 0 0 0 0 0 0 0 0 0 0 0 0 0 0 0 0 0.25 0"/>
<feBlend mode="normal" in2="shape" result="effect1_innerShadow"/>
</filter>
<linearGradient id="paint0_linear" x1="1055.5" y1="162" x2="1055.5" y2="528" gradientUnits="userSpaceOnUse">
<stop stop-color="#3158BC"/>
<stop offset="1" stop-color="#88C8EF"/>
</linearGradient>
<linearGradient id="paint1_linear" x1="487.5" y1="2" x2="487.5" y2="452" gradientUnits="userSpaceOnUse">
<stop stop-color="#88C8EF"/>
<stop offset="1" stop-color="#3158BC"/>
</linearGradient>
<linearGradient id="paint2_linear" x1="426" y1="1" x2="426" y2="368" gradientUnits="userSpaceOnUse">
<stop stop-color="#88C8EF"/>
<stop offset="1" stop-color="#3158BC"/>
</linearGradient>
<linearGradient id="paint3_linear" x1="1152" y1="251" x2="1152" y2="530" gradientUnits="userSpaceOnUse">
<stop stop-color="#3158BC"/>
<stop offset="1" stop-color="#88C8EF"/>
</linearGradient>
</defs>
</svg>
