<svg width="512" height="512" viewBox="0 0 512 512" fill="none" xmlns="http://www.w3.org/2000/svg">
<path d="M118.552 371.428C118.082 372.219 117.461 372.909 116.724 373.459C115.986 374.009 115.148 374.409 114.256 374.635C113.365 374.861 112.437 374.909 111.527 374.776C110.617 374.643 109.742 374.331 108.952 373.86C103.724 370.74 98.52 367.416 93.488 363.964C92.7287 363.444 92.0793 362.779 91.5768 362.008C91.0743 361.237 90.7286 360.375 90.5594 359.47C90.3902 358.566 90.4008 357.637 90.5907 356.736C90.7806 355.836 91.146 354.981 91.666 354.222C92.186 353.463 92.8505 352.813 93.6215 352.311C94.3926 351.808 95.255 351.463 96.1597 351.293C97.0643 351.124 97.9934 351.135 98.8939 351.325C99.7944 351.515 100.649 351.88 101.408 352.4C106.208 355.684 111.148 358.852 116.124 361.816C116.916 362.287 117.606 362.909 118.157 363.647C118.708 364.386 119.107 365.225 119.333 366.118C119.558 367.011 119.605 367.94 119.472 368.851C119.338 369.762 119.025 370.638 118.552 371.428V371.428ZM489.916 293.92C489.16 295.12 412.368 413.8 256 413.8C216.918 413.988 178.211 406.179 142.26 390.852C140.629 390.072 139.362 388.691 138.726 386.999C138.09 385.306 138.133 383.433 138.847 381.772C139.561 380.111 140.89 378.79 142.556 378.087C144.222 377.384 146.096 377.353 147.784 378C159.457 382.989 171.473 387.133 183.74 390.4C167.863 378.979 154.928 363.949 145.999 346.548C137.07 329.148 132.404 309.875 132.385 290.317C132.365 270.76 136.993 251.477 145.887 234.059C154.781 216.64 167.686 201.585 183.54 190.132C124.872 206.441 73.2013 241.603 36.5 290.192C46.8903 304.339 58.7233 317.368 71.808 329.068C73.1871 330.313 74.0152 332.055 74.1101 333.91C74.205 335.766 73.5589 337.583 72.314 338.962C71.0691 340.341 69.3273 341.169 67.4718 341.264C65.6163 341.359 63.7991 340.713 62.42 339.468C47.1265 326.028 33.5758 310.726 22.084 293.92C21.3766 292.801 21.0011 291.504 21.0011 290.18C21.0011 288.856 21.3766 287.559 22.084 286.44C33.6465 269.834 47.174 254.687 62.372 241.328L30.676 209.284C30.0119 208.634 29.4837 207.859 29.1223 207.003C28.7609 206.148 28.5734 205.228 28.5708 204.299C28.5682 203.37 28.7505 202.45 29.1072 201.592C29.4638 200.735 29.9876 199.956 30.6481 199.303C31.3086 198.65 32.0924 198.135 32.9541 197.787C33.8157 197.44 34.7378 197.268 35.6667 197.281C36.5956 197.293 37.5127 197.491 38.3644 197.861C39.2162 198.232 39.9857 198.769 40.628 199.44L73 232.168C86.1325 221.385 100.167 211.749 114.948 203.368L87.364 157.6C86.8894 156.812 86.5746 155.938 86.4377 155.029C86.3008 154.119 86.3443 153.192 86.5659 152.299C86.7874 151.406 87.1827 150.566 87.729 149.826C88.2753 149.086 88.9621 148.461 89.75 147.986C90.5379 147.511 91.4116 147.197 92.3212 147.06C93.2308 146.923 94.1584 146.966 95.0512 147.188C95.9439 147.409 96.7843 147.805 97.5243 148.351C98.2643 148.897 98.8894 149.584 99.364 150.372L127.336 196.772C144.043 188.349 161.552 181.622 179.6 176.692L163.252 121.008C162.766 119.238 162.994 117.348 163.888 115.744C164.782 114.141 166.27 112.953 168.032 112.436C169.793 111.92 171.687 112.116 173.305 112.982C174.924 113.848 176.137 115.316 176.684 117.068L193.2 173.352C211.542 169.344 230.229 167.125 249 166.728V105.2C249 103.343 249.737 101.563 251.05 100.25C252.363 98.9375 254.143 98.2 256 98.2C257.857 98.2 259.637 98.9375 260.95 100.25C262.262 101.563 263 103.343 263 105.2V166.728C281.771 167.125 300.458 169.344 318.8 173.352L335.312 117.068C335.834 115.286 337.043 113.785 338.673 112.895C340.302 112.004 342.218 111.797 344 112.32C345.782 112.842 347.283 114.051 348.173 115.681C349.064 117.31 349.27 119.226 348.748 121.008L332.4 176.692C350.447 181.624 367.955 188.352 384.66 196.776L412.632 150.376C413.107 149.588 413.732 148.901 414.472 148.355C415.212 147.809 416.052 147.413 416.945 147.192C417.838 146.97 418.765 146.927 419.675 147.064C420.584 147.201 421.458 147.515 422.246 147.99C423.034 148.465 423.721 149.09 424.267 149.83C424.813 150.57 425.209 151.41 425.43 152.303C425.652 153.196 425.695 154.123 425.558 155.033C425.421 155.942 425.107 156.816 424.632 157.604L397.032 203.376C411.813 211.757 425.848 221.393 438.98 232.176L471.352 199.448C471.994 198.777 472.764 198.24 473.616 197.869C474.467 197.499 475.384 197.301 476.313 197.288C477.242 197.276 478.164 197.448 479.026 197.795C479.888 198.143 480.671 198.658 481.332 199.311C481.992 199.964 482.516 200.743 482.873 201.6C483.229 202.458 483.412 203.378 483.409 204.307C483.407 205.236 483.219 206.156 482.858 207.011C482.496 207.867 481.968 208.642 481.304 209.292L449.608 241.336C464.813 254.691 478.347 269.836 489.916 286.44C490.623 287.559 490.999 288.856 490.999 290.18C490.999 291.504 490.623 292.801 489.916 293.92V293.92ZM475.488 290.18C438.818 241.627 387.201 206.48 328.588 190.152C336.877 196.162 344.391 203.174 350.96 211.028C352.15 212.454 352.724 214.294 352.557 216.143C352.391 217.993 351.496 219.7 350.07 220.89C348.644 222.08 346.804 222.654 344.955 222.487C343.105 222.321 341.398 221.426 340.208 220C322.613 198.96 297.738 185.319 270.538 181.794C243.338 178.269 215.808 185.118 193.43 200.978C171.053 216.838 155.47 240.544 149.785 267.376C144.1 294.208 148.731 322.197 162.754 345.769C176.777 369.341 199.164 386.766 225.456 394.575C251.749 402.383 280.018 400.002 304.634 387.905C329.25 375.808 348.407 354.883 358.289 329.298C368.171 303.712 368.053 275.343 357.96 249.84C357.308 248.12 357.359 246.213 358.101 244.531C358.844 242.848 360.219 241.526 361.929 240.849C363.639 240.172 365.546 240.195 367.239 240.914C368.932 241.632 370.275 242.988 370.976 244.688C381.061 270.227 382.356 298.396 374.657 324.752C366.959 351.109 350.705 374.152 328.46 390.248C387.126 373.937 438.793 338.772 475.488 290.18V290.18ZM315.336 290.18C315.336 301.915 311.856 313.388 305.336 323.145C298.816 332.903 289.549 340.508 278.707 344.999C267.865 349.49 255.934 350.665 244.424 348.376C232.914 346.086 222.341 340.435 214.043 332.137C205.745 323.839 200.094 313.266 197.804 301.756C195.515 290.246 196.69 278.315 201.181 267.473C205.672 256.631 213.277 247.364 223.035 240.844C232.792 234.324 244.264 230.844 256 230.844C271.732 230.861 286.814 237.118 297.938 248.242C309.062 259.366 315.319 274.448 315.336 290.18V290.18ZM301.336 290.18C301.336 281.213 298.677 272.448 293.695 264.993C288.714 257.537 281.633 251.726 273.349 248.295C265.065 244.864 255.95 243.966 247.155 245.715C238.361 247.464 230.283 251.782 223.943 258.123C217.602 264.463 213.284 272.541 211.535 281.335C209.786 290.13 210.684 299.245 214.115 307.529C217.546 315.813 223.357 322.894 230.813 327.875C238.268 332.857 247.033 335.516 256 335.516C268.02 335.503 279.544 330.723 288.043 322.223C296.543 313.724 301.323 302.2 301.336 290.18V290.18Z" fill="url(#paint0_linear)"/>
<defs>
<linearGradient id="paint0_linear" x1="395.704" y1="393.548" x2="116.136" y2="113.98" gradientUnits="userSpaceOnUse">
<stop stop-color="#E95350"/>
<stop offset="1" stop-color="#117EC1"/>
</linearGradient>
</defs>
</svg>
