<svg width="140" height="140" viewBox="0 0 140 140" fill="none" xmlns="http://www.w3.org/2000/svg">
<g clip-path="url(#clip0)">
<path d="M48.0827 8.29087C50.2129 6.1678 49.5509 6.38642 55.5255 3.19321C61.5 0 70 0 70 0V140H56.8304C53.9709 140 51.5651 137.859 51.2339 135.018L48.0685 107.87C47.7023 104.727 48.5046 101.573 50.3277 98.9876L53.0384 95.1443C55.2285 92.0384 55.1672 87.9093 52.8853 84.8702L49.5719 80.4567C45.5981 75.1638 46.2738 67.7922 51.144 63.3095C52.8763 61.7153 53.8755 59.5414 53.9572 57.1886C54.0393 54.8356 53.1935 52.5974 51.5758 50.8864C51.3682 50.5949 43.533 43.2561 41.4204 31.2114C41.1584 29.7184 40.9872 28.2035 40.9115 26.7091C40.7545 23.6166 41.192 20.5611 42.1907 17.6705C37.2065 15.63 32.1283 14.3409 27.0684 13.8342C25.1381 13.6417 23.2773 13.9945 21.6888 14.8537C20.9477 15.2548 20.2223 15.7347 19.5329 16.2802C15.8468 19.1969 15.4897 23.4118 16.3847 26.3842C17.2105 29.1277 19.5195 32.1669 23.5728 32.8981C25.2554 30.8434 27.811 29.53 30.6675 29.53C35.7225 29.53 39.8349 33.6424 39.8349 38.6971C39.8349 43.7518 35.7225 47.8642 30.6675 47.8642C27.5321 47.8642 24.7596 46.2818 23.1058 43.8741C14.8818 42.9886 8.31872 37.5341 5.911 29.5374C3.44694 21.3541 6.06577 12.9871 12.7456 7.70158C13.9294 6.76529 15.1867 5.93454 16.4831 5.23315C20.006 3.32638 24.0432 2.53775 28.1589 2.95011C34.8729 3.62307 41.5686 5.41828 48.0827 8.29087Z" fill="#FF637B"/>
<path d="M91.9173 8.29087C89.7871 6.1678 90.4491 6.38642 84.4745 3.19321C78.5 0 70 0 70 0V140H83.1696C86.0291 140 88.4349 137.859 88.7661 135.018L91.9315 107.87C92.2977 104.727 91.4954 101.573 89.6723 98.9876L86.9616 95.1443C84.7715 92.0384 84.8328 87.9093 87.1147 84.8702L90.4281 80.4567C94.4019 75.1638 93.7262 67.7922 88.856 63.3095C87.1237 61.7153 86.1245 59.5414 86.0428 57.1886C85.9607 54.8356 86.8065 52.5974 88.4242 50.8864C88.6318 50.5949 96.467 43.2561 98.5796 31.2114C98.8416 29.7184 99.0128 28.2035 99.0885 26.7091C99.2455 23.6166 98.808 20.5611 97.8093 17.6705C102.793 15.63 107.872 14.3409 112.932 13.8342C114.862 13.6417 116.723 13.9945 118.311 14.8537C119.052 15.2548 119.778 15.7347 120.467 16.2802C124.153 19.1969 124.51 23.4118 123.615 26.3842C122.79 29.1277 120.48 32.1669 116.427 32.8981C114.745 30.8434 112.189 29.53 109.332 29.53C104.278 29.53 100.165 33.6424 100.165 38.6971C100.165 43.7518 104.278 47.8642 109.332 47.8642C112.468 47.8642 115.24 46.2818 116.894 43.8741C125.118 42.9886 131.681 37.5341 134.089 29.5374C136.553 21.3541 133.934 12.9871 127.254 7.70158C126.071 6.76529 124.813 5.93454 123.517 5.23315C119.994 3.32638 115.957 2.53775 111.841 2.95011C105.127 3.62307 98.4314 5.41828 91.9173 8.29087Z" fill="#E63950"/>
<path d="M63.3564 121.159C63.9345 120.186 65.1929 119.865 66.1669 120.443C67.4731 121.219 68.7346 121.607 69.996 121.607V125.696C68.0031 125.696 66.0102 125.12 64.0729 123.97C63.0988 123.391 62.7781 122.133 63.3564 121.159Z" fill="#FFCEBF"/>
<path d="M76.6396 121.164C76.0615 120.19 74.8031 119.87 73.8291 120.447C72.5229 121.223 71.2615 121.611 70 121.611V125.7C71.9929 125.7 73.9858 125.125 75.9232 123.974C76.8972 123.396 77.218 122.138 76.6396 121.164Z" fill="#FFB99C"/>
<path d="M63.3772 107.823C63.4522 111.397 66.4213 114.304 69.9961 114.304V12.1486C67.2926 12.1486 64.5891 12.7503 61.9044 13.9539C56.6534 16.3077 53.3211 21.7007 53.6126 27.3737C53.6553 28.2044 53.7507 29.0456 53.8959 29.8727C54.5566 33.6401 56.2681 36.6267 57.5875 38.4689C60.6129 42.6915 62.109 47.4496 62.2099 52.2519L63.3772 107.823Z" fill="#E63950"/>
<path d="M76.6189 107.675C76.5439 111.248 73.5748 114.156 70 114.156V12C72.7035 12 75.407 12.6017 78.0917 13.8053C83.3427 16.1591 86.675 21.5521 86.3835 27.2251C86.3408 28.0558 86.2454 28.897 86.1002 29.7242C85.4395 33.4915 83.728 36.4781 82.4086 38.3203C79.3832 42.5429 77.8871 47.301 77.7862 52.1033L76.6189 107.675Z" fill="#AE2538"/>
</g>
<defs>
<clipPath id="clip0">
<rect width="140" height="140" fill="white"/>
</clipPath>
</defs>
</svg>
