<svg width="512" height="512" viewBox="0 0 512 512" fill="none" xmlns="http://www.w3.org/2000/svg">
<path d="M190.228 120.48V28C190.228 26.1435 190.966 24.363 192.278 23.0503C193.591 21.7375 195.371 21 197.228 21C199.085 21 200.865 21.7375 202.178 23.0503C203.491 24.363 204.228 26.1435 204.228 28V120.48C204.239 129.229 207.719 137.616 213.905 143.803C220.092 149.989 228.479 153.469 237.228 153.48H244.864V136C244.89 112.934 254.065 90.8209 270.375 74.5109C286.685 58.201 308.798 49.0265 331.864 49H351.26C353.117 49 354.897 49.7375 356.21 51.0503C357.523 52.363 358.26 54.1435 358.26 56C358.26 57.8565 357.523 59.637 356.21 60.9497C354.897 62.2625 353.117 63 351.26 63H331.864C312.51 63.0222 293.955 70.7204 280.27 84.4058C266.584 98.0911 258.886 116.646 258.864 136V153.48H294.956V134.092C294.967 124.813 298.657 115.916 305.219 109.355C311.78 102.793 320.677 99.1026 329.956 99.092H351.26C353.117 99.092 354.897 99.8295 356.21 101.142C357.523 102.455 358.26 104.235 358.26 106.092C358.26 107.949 357.523 109.729 356.21 111.042C354.897 112.355 353.117 113.092 351.26 113.092H329.956C324.388 113.098 319.051 115.313 315.114 119.25C311.177 123.187 308.962 128.524 308.956 134.092V153.744C332.787 154.979 355.776 162.958 375.248 176.752C376.018 177.275 376.676 177.946 377.184 178.726C377.692 179.506 378.039 180.38 378.205 181.296C378.371 182.212 378.352 183.152 378.151 184.061C377.949 184.97 377.568 185.829 377.03 186.589C376.492 187.348 375.808 187.993 375.018 188.485C374.228 188.978 373.347 189.307 372.428 189.455C371.509 189.603 370.57 189.566 369.665 189.346C368.761 189.127 367.909 188.729 367.16 188.176C348.109 174.662 325.317 167.428 301.96 167.48H237.228C224.767 167.466 212.82 162.51 204.009 153.699C195.198 144.888 190.242 132.941 190.228 120.48V120.48ZM403.492 204.184C402.378 202.699 400.72 201.717 398.882 201.454C397.044 201.192 395.177 201.67 393.692 202.784C392.207 203.898 391.225 205.556 390.962 207.394C390.7 209.232 391.178 211.099 392.292 212.584C407.062 232.125 415.019 255.969 414.944 280.464V286.864C378.144 283.964 367.344 258.728 366.86 257.544C366.52 256.69 366.016 255.91 365.375 255.251C364.734 254.592 363.97 254.065 363.126 253.701C362.282 253.337 361.374 253.143 360.455 253.13C359.535 253.116 358.622 253.284 357.768 253.624C356.914 253.964 356.134 254.468 355.475 255.109C354.816 255.75 354.289 256.514 353.925 257.358C353.561 258.202 353.367 259.11 353.354 260.029C353.34 260.949 353.508 261.862 353.848 262.716C354.436 264.212 368.296 297.72 414.944 300.848V444C414.934 452.749 411.455 461.137 405.268 467.324C399.081 473.511 390.693 476.99 381.944 477H351.448C351.492 457.316 351.188 445.4 340.896 411.8C328.46 371.2 359.2 352.584 360.592 351.76C361.389 351.301 362.087 350.689 362.648 349.96C363.209 349.231 363.62 348.399 363.859 347.511C364.098 346.623 364.159 345.696 364.04 344.784C363.921 343.872 363.623 342.993 363.164 342.196C362.705 341.399 362.093 340.7 361.364 340.14C360.635 339.579 359.803 339.168 358.915 338.929C358.027 338.69 357.1 338.629 356.188 338.748C355.276 338.867 354.397 339.165 353.6 339.624C342.51 346.594 333.842 356.818 328.781 368.9C323.72 380.981 322.512 394.331 325.324 407.124C310.72 406.974 296.411 403.001 283.82 395.6C282.24 394.625 280.338 394.317 278.531 394.744C276.724 395.171 275.161 396.298 274.186 397.878C273.211 399.458 272.903 401.36 273.33 403.167C273.757 404.974 274.884 406.537 276.464 407.512C291.731 416.565 309.175 421.287 326.924 421.172C327.7 421.172 328.408 421.172 329.088 421.148C337.22 448.748 337.488 459.176 337.448 476.996H307.136C282.609 477.076 258.431 471.191 236.684 459.848C235.036 458.992 233.116 458.825 231.346 459.385C229.576 459.945 228.1 461.184 227.244 462.832C226.388 464.48 226.221 466.4 226.781 468.17C227.341 469.94 228.58 471.416 230.228 472.272C254 484.569 280.372 490.99 307.136 490.996H381.936C394.4 490.988 406.351 486.034 415.166 477.223C423.982 468.412 428.941 456.464 428.956 444V280.48C429.038 252.948 420.094 226.148 403.492 204.184V204.184ZM195.092 428.184C193.827 426.824 192.075 426.023 190.219 425.956C188.364 425.889 186.558 426.561 185.198 427.826C183.839 429.091 183.037 430.843 182.97 432.699C182.903 434.554 183.575 436.361 184.84 437.72C189.184 442.387 193.789 446.805 198.632 450.952C200.047 452.119 201.864 452.683 203.692 452.524C205.519 452.365 207.211 451.495 208.404 450.102C209.596 448.708 210.194 446.902 210.068 445.071C209.943 443.241 209.104 441.534 207.732 440.316C203.285 436.51 199.058 432.455 195.072 428.168L195.092 428.184ZM175.316 263.092H90.044C88.1875 263.092 86.407 263.829 85.0943 265.142C83.7815 266.455 83.044 268.235 83.044 270.092C83.044 271.949 83.7815 273.729 85.0943 275.042C86.407 276.355 88.1875 277.092 90.044 277.092H140.136V324C140.128 352.79 147.56 381.093 161.712 406.164C162.627 407.78 164.146 408.966 165.936 409.461C167.725 409.957 169.638 409.721 171.254 408.806C172.87 407.891 174.056 406.372 174.551 404.582C175.047 402.793 174.811 400.88 173.896 399.264C160.933 376.298 154.126 350.372 154.136 324V277.092H175.336C180.904 277.098 186.241 279.313 190.178 283.25C194.115 287.187 196.33 292.524 196.336 298.092V304.664C196.336 306.521 197.073 308.301 198.386 309.614C199.699 310.926 201.479 311.664 203.336 311.664C205.193 311.664 206.973 310.926 208.286 309.614C209.599 308.301 210.336 306.521 210.336 304.664V298.092C210.325 288.809 206.632 279.91 200.066 273.348C193.5 266.786 184.599 263.097 175.316 263.092V263.092ZM246.4 304.664C246.4 306.521 247.138 308.301 248.45 309.614C249.763 310.926 251.543 311.664 253.4 311.664C255.257 311.664 257.037 310.926 258.35 309.614C259.663 308.301 260.4 306.521 260.4 304.664V300C260.374 276.934 251.199 254.821 234.889 238.511C218.579 222.201 196.466 213.026 173.4 213H154.136V28C154.136 26.1435 153.399 24.363 152.086 23.0503C150.773 21.7375 148.993 21 147.136 21C145.279 21 143.499 21.7375 142.186 23.0503C140.874 24.363 140.136 26.1435 140.136 28V213H90.044C89.1248 213 88.2145 213.181 87.3652 213.533C86.5159 213.885 85.7443 214.4 85.0943 215.05C84.4443 215.7 83.9286 216.472 83.5769 217.321C83.2251 218.17 83.044 219.081 83.044 220C83.044 220.919 83.2251 221.83 83.5769 222.679C83.9286 223.528 84.4443 224.3 85.0943 224.95C85.7443 225.6 86.5159 226.115 87.3652 226.467C88.2145 226.819 89.1248 227 90.044 227H173.408C192.761 227.024 211.313 234.723 224.997 248.409C238.681 262.094 246.378 280.647 246.4 300V304.664Z" fill="url(#paint0_linear)"/>
<defs>
<linearGradient id="paint0_linear" x1="459.228" y1="433.164" x2="95.648" y2="69.588" gradientUnits="userSpaceOnUse">
<stop stop-color="#E95350"/>
<stop offset="1" stop-color="#117EC1"/>
</linearGradient>
</defs>
</svg>
