<svg width="512" height="512" viewBox="0 0 512 512" fill="none" xmlns="http://www.w3.org/2000/svg">
<path d="M426 32.5039C416.777 25.248 405.433 21.2103 393.699 21.0073C381.966 20.8044 370.488 24.4473 361.02 31.3799C351.307 38.0627 344.049 47.7404 340.352 58.9354C336.656 70.1305 336.724 82.2277 340.548 93.3799C347.759 115.481 352.165 138.401 353.664 161.6H342.832C331.804 161.578 320.912 164.039 310.964 168.8V27.9999C310.964 26.1434 310.227 24.363 308.914 23.0502C307.601 21.7374 305.821 20.9999 303.964 20.9999C302.107 20.9999 300.327 21.7374 299.014 23.0502C297.701 24.363 296.964 26.1434 296.964 27.9999V181.056C296.964 182.343 297.319 183.606 297.99 184.704C298.661 185.803 299.622 186.695 300.767 187.283C301.912 187.871 303.198 188.132 304.481 188.037C305.765 187.942 306.998 187.494 308.044 186.744C318.181 179.457 330.359 175.553 342.844 175.588H354.28C354.332 177.908 354.408 180.22 354.408 182.556C354.408 184.892 354.332 187.204 354.28 189.524H343.964C331.503 189.539 319.557 194.495 310.746 203.306C301.935 212.117 296.979 224.063 296.964 236.524V484C296.964 485.856 297.701 487.637 299.014 488.95C300.327 490.262 302.107 491 303.964 491C305.821 491 307.601 490.262 308.914 488.95C310.227 487.637 310.964 485.856 310.964 484V236.524C310.974 227.775 314.453 219.387 320.64 213.2C326.827 207.013 335.215 203.533 343.964 203.524H353.664C352.158 226.716 347.746 249.627 340.532 271.72C336.708 282.872 336.64 294.969 340.336 306.164C344.033 317.359 351.291 327.037 361.004 333.72C370.269 340.414 381.394 344.043 392.824 344.1C404.847 344.045 416.512 339.997 425.984 332.592C469.124 299.44 491 248.96 491 182.556C491 116.152 469.124 65.6679 426 32.5039ZM417.468 321.504C410.513 326.781 402.054 329.696 393.325 329.825C384.596 329.954 376.054 327.289 368.947 322.219C361.84 317.149 356.539 309.94 353.819 301.645C351.099 293.349 351.102 284.402 353.828 276.108C363.644 245.901 368.563 214.318 368.4 182.556C368.563 150.793 363.644 119.208 353.828 88.9999C351.001 80.6858 350.963 71.6763 353.72 63.3386C356.477 55.0009 361.878 47.79 369.104 42.7999C376.146 37.8291 384.54 35.1298 393.16 35.0639C401.987 35.1022 410.543 38.1104 417.452 43.6039C456.964 73.9759 477 120.728 477 182.556C477 244.384 456.964 291.132 417.452 321.504H417.468ZM283.032 229.028V484C283.032 485.856 282.295 487.637 280.982 488.95C279.669 490.262 277.889 491 276.032 491C274.175 491 272.395 490.262 271.082 488.95C269.769 487.637 269.032 485.856 269.032 484V229.028C269.032 227.171 269.769 225.391 271.082 224.078C272.395 222.765 274.175 222.028 276.032 222.028C277.889 222.028 279.669 222.765 280.982 224.078C282.295 225.391 283.032 227.171 283.032 229.028V229.028ZM283.032 174.084V192.084C283.032 193.94 282.295 195.721 280.982 197.034C279.669 198.346 277.889 199.084 276.032 199.084C274.175 199.084 272.395 198.346 271.082 197.034C269.769 195.721 269.032 193.94 269.032 192.084V174.084C269.032 172.227 269.769 170.447 271.082 169.134C272.395 167.821 274.175 167.084 276.032 167.084C277.889 167.084 279.669 167.821 280.982 169.134C282.295 170.447 283.032 172.227 283.032 174.084V174.084ZM283.032 27.9999V135.452C283.032 137.308 282.295 139.089 280.982 140.402C279.669 141.714 277.889 142.452 276.032 142.452C274.175 142.452 272.395 141.714 271.082 140.402C269.769 139.089 269.032 137.308 269.032 135.452V27.9999C269.032 26.1434 269.769 24.363 271.082 23.0502C272.395 21.7374 274.175 20.9999 276.032 20.9999C277.889 20.9999 279.669 21.7374 280.982 23.0502C282.295 24.363 283.032 26.1434 283.032 27.9999V27.9999ZM157.6 182.556C157.6 184.888 157.68 187.204 157.732 189.524H168.044C180.505 189.539 192.451 194.495 201.262 203.306C210.073 212.117 215.029 224.063 215.044 236.524V484C215.044 485.856 214.306 487.637 212.994 488.95C211.681 490.262 209.901 491 208.044 491C206.187 491 204.407 490.262 203.094 488.95C201.781 487.637 201.044 485.856 201.044 484V236.524C201.034 227.775 197.555 219.387 191.368 213.2C185.181 207.013 176.793 203.533 168.044 203.524H158.336C159.842 226.716 164.254 249.627 171.468 271.72C175.28 282.838 175.36 294.897 171.696 306.065C168.032 317.232 160.825 326.9 151.168 333.6C141.866 340.369 130.672 344.042 119.168 344.1C107.299 344.051 95.7754 340.104 86.368 332.868C85.635 332.313 85.0184 331.619 84.5535 330.826C84.0887 330.033 83.7846 329.156 83.6587 328.245C83.5328 327.334 83.5875 326.407 83.8197 325.518C84.0519 324.628 84.457 323.793 85.012 323.06C85.567 322.327 86.2609 321.71 87.0541 321.245C87.8474 320.781 88.7244 320.477 89.6352 320.351C90.5459 320.225 91.4726 320.279 92.3622 320.512C93.2518 320.744 94.087 321.149 94.82 321.704C101.795 326.899 110.244 329.737 118.941 329.808C127.638 329.878 136.131 327.177 143.19 322.096C150.248 317.016 155.506 309.819 158.2 301.549C160.893 293.28 160.884 284.368 158.172 276.104C148.357 245.898 143.437 214.316 143.6 182.556C143.437 150.793 148.356 119.208 158.172 88.9999C160.999 80.6858 161.037 71.6763 158.28 63.3386C155.523 55.0009 150.122 47.79 142.896 42.7999C135.848 37.6549 127.313 34.9494 118.588 35.0938C109.863 35.2381 101.422 38.2246 94.548 43.5999C55.036 73.9759 35 120.728 35 182.556C35 229.316 46.552 267.704 69.336 296.652C69.9256 297.372 70.3657 298.202 70.6305 299.095C70.8954 299.987 70.9796 300.923 70.8784 301.848C70.7771 302.773 70.4924 303.669 70.0409 304.483C69.5894 305.297 68.9801 306.012 68.2487 306.588C67.5174 307.163 66.6785 307.587 65.7814 307.835C64.8842 308.082 63.9467 308.148 63.0237 308.029C62.1007 307.91 61.2107 307.608 60.4058 307.141C59.6009 306.673 58.8972 306.05 58.336 305.308C33.564 273.836 21 232.536 21 182.556C21 116.156 42.876 65.6679 86.016 32.5039C95.2396 25.2493 106.584 21.2123 118.317 21.0094C130.05 20.8064 141.527 24.4486 150.996 31.3799C160.709 38.0627 167.967 47.7404 171.664 58.9354C175.36 70.1305 175.292 82.2277 171.468 93.3799C164.25 115.48 159.838 138.4 158.336 161.6H169.168C180.197 161.576 191.089 164.037 201.036 168.8V27.9999C201.036 26.1434 201.774 24.363 203.086 23.0502C204.399 21.7374 206.179 20.9999 208.036 20.9999C209.893 20.9999 211.673 21.7374 212.986 23.0502C214.299 24.363 215.036 26.1434 215.036 27.9999V181.056C215.036 182.343 214.681 183.606 214.01 184.704C213.339 185.803 212.378 186.695 211.233 187.283C210.088 187.871 208.802 188.132 207.519 188.037C206.235 187.942 205.002 187.494 203.956 186.744C193.818 179.458 181.641 175.554 169.156 175.588H157.72C157.668 177.908 157.6 180.22 157.6 182.556ZM242.964 27.9999V484C242.964 485.856 242.226 487.637 240.914 488.95C239.601 490.262 237.821 491 235.964 491C234.107 491 232.327 490.262 231.014 488.95C229.701 487.637 228.964 485.856 228.964 484V27.9999C228.964 26.1434 229.701 24.363 231.014 23.0502C232.327 21.7374 234.107 20.9999 235.964 20.9999C237.821 20.9999 239.601 21.7374 240.914 23.0502C242.226 24.363 242.964 26.1434 242.964 27.9999V27.9999Z" fill="url(#paint0_linear)"/>
<defs>
<linearGradient id="paint0_linear" x1="426.32" y1="371.544" x2="85.68" y2="30.9039" gradientUnits="userSpaceOnUse">
<stop stop-color="#E95350"/>
<stop offset="1" stop-color="#117EC1"/>
</linearGradient>
</defs>
</svg>
