<?xml version="1.0" encoding="iso-8859-1"?>
<!-- Generator: Adobe Illustrator 19.0.0, SVG Export Plug-In . SVG Version: 6.00 Build 0)  -->
<svg xmlns="http://www.w3.org/2000/svg" xmlns:xlink="http://www.w3.org/1999/xlink" version="1.1" id="Layer_1" x="0px" y="0px" viewBox="0 0 512.601 512.601" style="enable-background:new 0 0 512.601 512.601;" xml:space="preserve" width="512" height="512">
<g>
	<polygon style="fill:#61729B;" points="149.894,167.897 112.394,102.946 138.38,87.946 175.88,152.897  "/>
	<polygon style="fill:#61729B;" points="74.162,228.615 9.21,191.115 24.21,165.128 89.162,202.628  "/>
	<rect x="241.601" y="61.3" style="fill:#61729B;" width="30" height="75"/>
	<rect x="256.3" y="61.3" style="fill:#47568C;" width="15.3" height="75"/>
	<polygon style="fill:#47568C;" points="363.131,167.897 337.145,152.897 374.645,87.946 400.631,102.946  "/>
	<polygon style="fill:#47568C;" points="438.849,228.615 423.849,202.628 488.8,165.128 503.8,191.115  "/>
	<path style="fill:#E0F4FF;" d="M506.6,277.599C502.099,271.3,395.2,121.3,256.3,121.3S10.501,271.3,6,277.599L0,286.3L6,295   C10.501,301.3,117.4,451.3,256.3,451.3S502.099,301.3,506.6,295l6-8.699L506.6,277.599z"/>
	<path style="fill:#BBDCFF;" d="M512.601,286.3l-6,8.699C502.099,301.3,395.2,451.3,256.3,451.3v-330   c138.9,0,245.799,150,250.3,156.299L512.601,286.3z"/>
	<path style="fill:#64E1DC;" d="M256.3,181.3c-57.9,0-105,47.1-105,105s47.1,105,105,105s105-47.1,105-105S314.2,181.3,256.3,181.3z   "/>
	<path style="fill:#00C8C8;" d="M361.3,286.3c0,57.9-47.1,105-105,105v-210C314.2,181.3,361.3,228.401,361.3,286.3z"/>
	<path style="fill:#47568C;" d="M256.3,241.3c-24.901,0-45,20.099-45,45c0,24.899,20.099,45,45,45s45-20.101,45-45   C301.3,261.4,281.201,241.3,256.3,241.3z"/>
	<path style="fill:#2C3B73;" d="M301.3,286.3c0,24.899-20.099,45-45,45v-90C281.201,241.3,301.3,261.4,301.3,286.3z"/>
</g>















</svg>
