<svg width="41" height="41" viewBox="0 0 41 41" fill="none" xmlns="http://www.w3.org/2000/svg">
<path d="M30.2118 0H11.608C10.4866 0 9.4112 0.415349 8.61827 1.15468C7.82534 1.894 7.37988 2.89674 7.37988 3.94231V37.0577C7.37988 38.1033 7.82534 39.106 8.61827 39.8453C9.4112 40.5847 10.4866 41 11.608 41H30.2118C30.767 41 31.3168 40.898 31.8298 40.6999C32.3428 40.5018 32.8089 40.2114 33.2015 39.8453C33.5941 39.4792 33.9056 39.0447 34.118 38.5663C34.3305 38.088 34.4399 37.5754 34.4399 37.0577V3.94231C34.4399 3.4246 34.3305 2.91195 34.118 2.43365C33.9056 1.95535 33.5941 1.52075 33.2015 1.15468C32.8089 0.788598 32.3428 0.49821 31.8298 0.30009C31.3168 0.101971 30.767 0 30.2118 0ZM32.7486 37.0577C32.7486 37.685 32.4814 38.2867 32.0056 38.7303C31.5298 39.1739 30.8846 39.4231 30.2118 39.4231H11.608C10.9352 39.4231 10.2899 39.1739 9.81417 38.7303C9.33841 38.2867 9.07113 37.685 9.07113 37.0577V3.94231C9.07113 3.31497 9.33841 2.71332 9.81417 2.26973C10.2899 1.82613 10.9352 1.57692 11.608 1.57692H30.2118C30.8846 1.57692 31.5298 1.82613 32.0056 2.26973C32.4814 2.71332 32.7486 3.31497 32.7486 3.94231V37.0577Z" fill="white"/>
<path d="M10.6599 34.44H31.9799V4.92004H10.6599V34.44ZM12.4366 6.65651H30.2032V32.7036H12.4366V6.65651Z" fill="white"/>
<path d="M21.3199 38.54C22.2257 38.54 22.9599 37.8058 22.9599 36.9C22.9599 35.9943 22.2257 35.26 21.3199 35.26C20.4142 35.26 19.6799 35.9943 19.6799 36.9C19.6799 37.8058 20.4142 38.54 21.3199 38.54Z" fill="white"/>
<path d="M24.6 2.45996H18.04V4.09996H24.6V2.45996Z" fill="white"/>
</svg>
