<svg width="30" height="30" viewBox="0 0 30 30" fill="none" xmlns="http://www.w3.org/2000/svg">
<path d="M21.4453 23.2031C21.1219 23.2031 20.8594 23.4656 20.8594 23.7891C20.8594 24.1125 21.1219 24.375 21.4453 24.375C21.7687 24.375 22.0312 24.1125 22.0312 23.7891C22.0312 23.4656 21.7687 23.2031 21.4453 23.2031Z" fill="white"/>
<path d="M22.888 21.3084L20.103 20.3803L19.1033 18.3806C20.004 17.4639 20.6293 16.2509 20.8402 14.9856L20.9649 14.2383H22.0312C23.0005 14.2383 23.7891 13.4497 23.7891 12.4805V8.78906C23.7891 3.94277 19.8463 0 15 0C10.1413 0 6.21094 3.93146 6.21094 8.78906V12.4805C6.21094 13.2443 6.70084 13.8956 7.38281 14.1375V14.8242C7.38281 15.7935 8.17137 16.582 9.14062 16.582H9.6552C9.9092 17.1338 10.238 17.6449 10.638 18.1039C10.721 18.1993 10.8076 18.2918 10.8962 18.3817L9.89695 20.3803L7.11193 21.3084C3.87375 22.3882 1.52344 25.7971 1.52344 29.4141C1.52344 29.7377 1.78576 30 2.10938 30H27.8906C28.2142 30 28.4766 29.7377 28.4766 29.4141C28.4766 25.7971 26.1263 22.3882 22.888 21.3084ZM22.6172 12.4805C22.6172 12.8036 22.3543 13.0664 22.0312 13.0664H21.137C21.2859 11.9127 21.3852 10.685 21.4251 9.47578C21.4263 9.44168 21.4272 9.40852 21.4283 9.375H22.6172V12.4805ZM7.96875 13.0664C7.64566 13.0664 7.38281 12.8036 7.38281 12.4805V9.375H8.57215C8.57408 9.43611 8.57613 9.49752 8.57842 9.55934C8.57848 9.56145 8.57859 9.5635 8.57865 9.56561C8.57865 9.56578 8.57865 9.56596 8.57865 9.56613C8.61967 10.7422 8.71764 11.9381 8.86318 13.0663H7.96875V13.0664ZM9.14062 15.4102C8.81754 15.4102 8.55469 15.1473 8.55469 14.8242V14.2383H9.03504L9.15973 14.9859C9.18352 15.128 9.21275 15.2695 9.24656 15.4102H9.14062ZM8.55568 8.20312H7.40508C7.70186 4.27611 10.9791 1.17188 15 1.17188C19.003 1.17188 22.2947 4.2757 22.5949 8.20312H21.4444C21.4022 4.96717 18.7671 2.34375 15.5245 2.34375H14.4756C11.2331 2.34375 8.59781 4.96717 8.55568 8.20312ZM14.4756 3.51562H15.5244C18.1499 3.51562 20.275 5.66314 20.2734 8.28574C20.2734 8.47014 20.272 8.63068 20.2689 8.77676C20.2689 8.77863 20.2688 8.78057 20.2688 8.7825L19.5359 8.67779C17.5449 8.3935 15.665 7.45354 14.2424 6.031C14.1325 5.92113 13.9835 5.85938 13.8281 5.85938C12.2545 5.85938 10.7482 6.57633 9.75246 7.78758C9.99785 5.4017 12.0148 3.51562 14.4756 3.51562ZM10.4613 15.4102C10.168 14.4344 9.83238 11.5633 9.7582 9.72346L10.5468 8.67193C11.2711 7.70654 12.3979 7.10672 13.5966 7.03787C15.1737 8.53881 17.2141 9.52998 19.3702 9.83783L20.2328 9.96111C20.1752 11.1848 20.0573 12.4129 19.8885 13.5422C19.8885 13.5426 19.8884 13.543 19.8884 13.5434C19.8347 13.9065 19.7924 14.1402 19.6843 14.7929C19.374 16.6541 17.9852 18.3372 16.1519 18.7956C15.3974 18.984 14.6025 18.9839 13.8484 18.7956C12.7037 18.5094 11.654 17.7173 10.9766 16.582H12.1711C12.413 17.264 13.0642 17.7539 13.8281 17.7539H15C15.9712 17.7539 16.7578 16.9673 16.7578 15.9961C16.7578 15.0268 15.9693 14.2383 15 14.2383H13.8281C13.0472 14.2383 12.4056 14.7427 12.1701 15.4102H10.4613ZM13.7788 19.9814C14.1807 20.0661 14.5905 20.1094 15 20.1094C15.3206 20.1094 15.6412 20.0825 15.9582 20.0305L14.9228 21.1254L13.7788 19.9814ZM14.1173 21.9773L12.2588 23.9426C11.7472 22.9633 11.3075 21.9441 10.947 20.9006L11.6449 19.5048L14.1173 21.9773ZM18.2558 19.3063L19.0529 20.9006C18.6918 21.9458 18.252 22.9654 17.7409 23.9435L15.7518 21.9544L18.2558 19.3063ZM13.2422 15.9961C13.2422 15.6726 13.5046 15.4102 13.8281 15.4102H15C15.3231 15.4102 15.5859 15.673 15.5859 15.9961C15.5859 16.3196 15.3235 16.582 15 16.582H13.8281C13.505 16.582 13.2422 16.3192 13.2422 15.9961ZM2.71875 28.8281C2.95096 25.9254 4.88273 23.2871 7.48254 22.4201L9.94898 21.5982C10.4009 22.8477 10.9607 24.0622 11.6167 25.2158C11.6179 25.2178 11.6189 25.2197 11.62 25.2217C11.62 25.2217 11.6201 25.2217 11.6201 25.2218C12.0994 26.0649 12.639 26.8888 13.2239 27.671L13.9447 28.8281H2.71875ZM15 28.3058L14.2054 27.0301C14.1964 27.0158 14.187 27.0019 14.1769 26.9884C13.7024 26.3555 13.2598 25.6935 12.8566 25.016L14.9463 22.8062L17.1481 25.008C16.7423 25.6905 16.2981 26.3552 15.8232 26.9883C15.7945 27.0265 15.8353 26.9662 15 28.3058ZM16.0553 28.8281L16.776 27.671C17.3636 26.8859 17.907 26.0554 18.3911 25.2023C18.394 25.1972 18.3968 25.1919 18.3997 25.1868C18.4001 25.1861 18.4004 25.1855 18.4008 25.1849C19.0485 24.0423 19.6025 22.8384 20.051 21.5982L22.5174 22.4201C25.1173 23.2871 27.049 25.9254 27.2813 28.8281H16.0553Z" fill="white"/>
<path d="M25.5203 26.4569C25.1287 25.6731 24.5551 24.9768 23.8616 24.4432C23.605 24.2458 23.2372 24.2938 23.0399 24.5503C22.8426 24.8068 22.8905 25.1747 23.147 25.372C23.701 25.7982 24.1591 26.3544 24.4719 26.9806C24.6168 27.2706 24.9689 27.3873 25.2579 27.2429C25.5474 27.0983 25.6649 26.7464 25.5203 26.4569Z" fill="white"/>
</svg>
