<?xml version="1.0" encoding="iso-8859-1"?>
<!-- Generator: Adobe Illustrator 19.0.0, SVG Export Plug-In . SVG Version: 6.00 Build 0)  -->
<svg xmlns="http://www.w3.org/2000/svg" xmlns:xlink="http://www.w3.org/1999/xlink" version="1.1" id="Layer_1" x="0px" y="0px" viewBox="0 0 512 512" style="enable-background:new 0 0 512 512;" xml:space="preserve" width="512" height="512">
<g>
	<path style="fill:#E63950;" d="M211,0v167.042C198.456,157.604,182.871,152,166,152v30c24.814,0,45,20.186,45,45v92.197h30   c0-15.91,0-304.82,0-319.197H211z"/>
	<path style="fill:#AE2538;" d="M301,167.043V0h-30c0,14.377,0,303.288,0,319.197h30V227c0-24.814,20.186-45,45-45v-30   C329.129,152,313.544,157.604,301,167.043z"/>
	<path style="fill:#E63950;" d="M364.461,295.672c-21.006-21.006-26.455-52.778-13.784-79.526C338.694,202.552,332,185.179,332,167   s6.694-35.552,18.677-49.146c-12.671-26.748-7.222-58.521,13.784-79.526c23.555-23.555,60.732-27.202,88.433-8.76   C489.91,54.251,512,95.53,512,140.018v53.965c0,44.487-22.09,85.767-59.106,110.449   C425.217,322.871,388.038,319.249,364.461,295.672z"/>
	<path style="fill:#FF637B;" d="M59.106,304.432C22.09,279.749,0,238.47,0,193.982v-53.965C0,95.53,22.09,54.251,59.106,29.568   c27.686-18.442,64.907-14.795,88.433,8.76c21.006,21.006,26.455,52.778,13.784,79.526C173.306,131.448,180,148.821,180,167   s-6.694,35.552-18.677,49.146c12.671,26.748,7.222,58.521-13.784,79.526C123.95,319.261,86.773,322.864,59.106,304.432z"/>
	<path style="fill:#FF637B;" d="M256,302c-94.799,0-105,52.5-105,75c0,34.799,21.599,59.7,60,69.6V512h90v-65.4   c38.401-9.901,60-34.801,60-69.6C361,354.5,350.799,302,256,302z"/>
	<path style="fill:#E63950;" d="M361,377c0,34.799-21.599,59.7-60,69.6V512h-45V302C350.799,302,361,354.5,361,377z"/>
</g>















</svg>
