<svg width="512" height="512" viewBox="0 0 512 512" fill="none" xmlns="http://www.w3.org/2000/svg">
<path d="M209.008 362.276C219.496 396.552 224.608 436.368 224.608 484C224.608 485.857 223.871 487.637 222.558 488.95C221.245 490.262 219.465 491 217.608 491C215.752 491 213.971 490.262 212.658 488.95C211.346 487.637 210.608 485.857 210.608 484C210.608 437.776 205.712 399.3 195.632 366.372C195.137 364.61 195.35 362.725 196.228 361.119C197.105 359.513 198.576 358.314 200.326 357.778C202.076 357.243 203.966 357.414 205.592 358.255C207.217 359.095 208.449 360.539 209.024 362.276H209.008ZM196.108 328.156C193.736 322.912 191.108 317.508 188.076 311.632C187.224 309.982 185.752 308.739 183.983 308.175C182.214 307.61 180.294 307.772 178.644 308.624C176.994 309.476 175.751 310.948 175.187 312.717C174.622 314.486 174.784 316.406 175.636 318.056C178.556 323.712 181.08 328.908 183.352 333.928C184.117 335.62 185.523 336.938 187.261 337.593C188.998 338.248 190.924 338.185 192.616 337.42C194.308 336.655 195.626 335.249 196.281 333.511C196.936 331.774 196.873 329.848 196.108 328.156V328.156ZM165.14 187.048C153.24 229.048 158.116 252.6 169.84 277.048C170.641 278.724 170.743 280.65 170.124 282.401C169.506 284.153 168.216 285.587 166.54 286.388C164.864 287.189 162.938 287.291 161.187 286.672C159.435 286.053 158.001 284.764 157.2 283.088C144.064 255.712 138.556 229.456 151.656 183.232C155.963 168.503 158.251 153.257 158.456 137.912C158.446 128.296 156.52 118.779 152.792 109.915C149.063 101.052 143.607 93.0196 136.74 86.288C135.769 85.336 134.791 84.3653 133.804 83.376C110.856 60.344 85.744 58.24 71.044 66.388C66.6236 68.4587 63.0622 72.004 60.9717 76.4151C58.8811 80.8261 58.3919 85.8275 59.588 90.56C62.0892 99.9121 66.6023 108.605 72.812 116.032C87.428 112.784 105.284 118.324 118.812 131.844C137.88 150.912 141.168 178.644 126.14 193.68C122.944 196.801 119.155 199.251 114.998 200.886C110.841 202.521 106.398 203.308 101.932 203.2C99.8668 203.196 97.8045 203.048 95.76 202.756C83.7829 200.814 72.7507 195.063 64.3 186.356C58.7443 181.089 54.3895 174.686 51.5324 167.584C48.6754 160.482 47.3832 152.847 47.744 145.2C35.737 132.125 27.1055 116.315 22.6 99.144C19.5457 86.3659 20.8446 72.9339 26.2907 60.9779C31.7369 49.0218 41.0186 39.2261 52.664 33.144C86.8 14.232 124.204 27.16 149.2 46.452C182.523 30.2949 218.972 21.6086 256 21C293.028 21.6085 329.477 30.2948 362.8 46.452C382.976 30.852 406.592 22.68 428.348 24.092C429.271 24.1416 430.175 24.3735 431.009 24.7745C431.842 25.1754 432.587 25.7374 433.202 26.4281C433.816 27.1187 434.288 27.9242 434.59 28.7982C434.891 29.6722 435.017 30.5972 434.959 31.52C434.901 32.4427 434.661 33.3448 434.253 34.1743C433.844 35.0037 433.276 35.744 432.58 36.3525C431.883 36.9609 431.074 37.4254 430.197 37.7192C429.32 38.013 428.394 38.1301 427.472 38.064C407.984 36.864 386.408 44.864 368.208 60.064C367.162 60.9392 365.883 61.4893 364.528 61.6464C363.174 61.8035 361.802 61.5607 360.584 60.948C328.123 44.5307 292.371 35.6605 256 35C219.634 35.6642 183.888 44.5357 151.432 60.952C150.214 61.5667 148.843 61.8106 147.487 61.6535C146.132 61.4964 144.853 60.9451 143.808 60.068C122.452 42.216 89.076 28.984 59.444 45.392C50.4902 50.0358 43.3441 57.5375 39.1402 66.7062C34.9363 75.8748 33.9156 86.185 36.24 96C39.3952 108.24 45.1133 119.671 53.016 129.536C54.1708 127.734 55.5115 126.058 57.016 124.536C57.9122 123.646 58.862 122.811 59.86 122.036C53.3588 113.64 48.6423 104.004 46 93.72C44.1274 86.0213 44.9184 77.9152 48.2439 70.7237C51.5695 63.5322 57.2334 57.6795 64.312 54.12C83.616 43.428 115.68 45.276 143.772 73.476C144.72 74.424 145.656 75.36 146.596 76.276C154.794 84.32 161.308 93.9164 165.757 104.505C170.205 115.094 172.501 126.463 172.508 137.948C172.288 154.573 169.81 171.091 165.14 187.048V187.048ZM81.336 128.932C78.6856 128.839 76.0432 129.276 73.5637 130.217C71.0841 131.157 68.8173 132.584 66.896 134.412C57.488 143.82 60.844 163.072 74.224 176.452C87.824 190.052 106.696 193.348 116.264 183.78C125.672 174.376 122.316 155.124 108.936 141.74C101.734 134.068 91.8444 129.479 81.336 128.932ZM489.4 99.144C484.895 116.315 476.263 132.125 464.256 145.2C464.616 152.851 463.321 160.49 460.46 167.596C457.599 174.701 453.238 181.106 447.676 186.372C439.225 195.079 428.193 200.83 416.216 202.772C414.172 203.064 412.109 203.212 410.044 203.216C405.578 203.324 401.135 202.537 396.978 200.902C392.821 199.267 389.032 196.817 385.836 193.696C370.808 178.672 374.096 150.928 393.164 131.86C406.676 118.34 424.536 112.8 439.164 116.048C445.372 108.622 449.885 99.9302 452.388 90.58C453.585 85.8469 453.096 80.8446 451.006 76.4327C448.915 72.0208 445.353 68.4748 440.932 66.404C426.228 58.252 401.12 60.356 378.168 83.392C377.184 84.3787 376.205 85.3507 375.232 86.308C368.367 93.0395 362.911 101.071 359.183 109.934C355.455 118.797 353.53 128.313 353.52 137.928C353.726 153.274 356.013 168.521 360.32 183.252C377.144 242.624 362.64 269.364 344.276 303.216C325.2 338.4 301.408 382.252 301.408 484C301.408 485.857 300.671 487.637 299.358 488.95C298.045 490.262 296.265 491 294.408 491C292.552 491 290.771 490.262 289.458 488.95C288.146 487.637 287.408 485.857 287.408 484C287.408 378.7 312.12 333.136 331.98 296.524C350.136 263.056 362.128 240.924 346.86 187.052C342.199 171.098 339.727 154.584 339.512 137.964C339.518 126.479 341.813 115.111 346.261 104.523C350.709 93.935 357.222 84.3392 365.42 76.296C366.364 75.376 367.3 74.44 368.22 73.496C396.328 45.296 428.388 43.452 447.688 54.14C454.766 57.7006 460.429 63.5534 463.754 70.7446C467.079 77.9358 467.871 86.0413 466 93.74C463.356 104.003 458.647 113.619 452.16 122C453.157 122.776 454.107 123.61 455.004 124.5C456.502 126.023 457.836 127.699 458.984 129.5C466.883 119.647 472.6 108.228 475.756 96C477.882 87.136 477.26 77.835 473.974 69.3327C470.687 60.8305 464.891 53.5295 457.356 48.4C455.879 47.315 454.887 45.6946 454.591 43.8863C454.295 42.078 454.72 40.2258 455.774 38.727C456.828 37.2281 458.427 36.202 460.229 35.8687C462.031 35.5354 463.892 35.9214 465.412 36.944C475.247 43.6559 482.808 53.1995 487.092 64.3086C491.376 75.4176 492.181 87.5668 489.4 99.144ZM445.104 134.4C435.536 124.832 416.676 128.116 403.064 141.728C389.684 155.112 386.328 174.364 395.736 183.768C405.296 193.332 424.164 190.052 437.776 176.44C451.156 163.072 454.512 143.82 445.104 134.4ZM320.076 192.74C311.016 151.54 316.204 122.936 322.144 106.22C323.16 103.345 323.464 100.266 323.029 97.248C322.593 94.2299 321.432 91.3625 319.644 88.892C317.853 86.4398 315.505 84.4493 312.792 83.0852C310.079 81.7212 307.08 81.0228 304.044 81.048C301.724 81.1048 299.403 80.9711 297.104 80.648C292.195 79.8272 287.402 78.4156 282.832 76.444C274.384 72.6807 265.24 70.7359 255.992 70.7359C246.744 70.7359 237.6 72.6807 229.152 76.444C224.582 78.4156 219.789 79.8272 214.88 80.648C212.58 80.9683 210.258 81.1021 207.936 81.048C204.899 81.0166 201.898 81.7122 199.184 83.0768C196.47 84.4413 194.122 86.4352 192.336 88.892C190.548 91.3625 189.387 94.2299 188.952 97.248C188.516 100.266 188.82 103.345 189.836 106.22C195.776 122.936 200.964 151.52 191.904 192.74C182.184 236.984 190.192 255.676 201.276 281.54C215.168 313.94 234.188 358.34 234.188 483.996C234.188 485.853 234.926 487.633 236.238 488.946C237.551 490.258 239.332 490.996 241.188 490.996C243.045 490.996 244.825 490.258 246.138 488.946C247.451 487.633 248.188 485.853 248.188 483.996C248.188 355.468 228.512 309.552 214.144 276.028C203.364 250.8 196.84 235.6 205.6 195.744C215.372 151.284 209.6 119.972 203.048 101.532C202.789 100.791 202.715 99.9973 202.832 99.2208C202.949 98.4443 203.254 97.7081 203.72 97.076C204.155 96.4538 204.733 95.9448 205.406 95.5913C206.078 95.2379 206.825 95.0502 207.584 95.044H207.68C210.756 95.1113 213.833 94.9307 216.88 94.504C222.846 93.5468 228.673 91.8664 234.232 89.5C241.065 86.3586 248.496 84.7321 256.016 84.7321C263.536 84.7321 270.967 86.3586 277.8 89.5C283.359 91.8664 289.186 93.5468 295.152 94.504C298.199 94.9306 301.276 95.1112 304.352 95.044H304.4C305.16 95.0505 305.907 95.2383 306.58 95.5917C307.253 95.9452 307.831 96.454 308.268 97.076C308.734 97.7081 309.039 98.4443 309.156 99.2208C309.273 99.9973 309.199 100.791 308.94 101.532C302.384 119.972 296.616 151.284 306.388 195.744C315.144 235.596 308.62 250.816 297.82 276.032C283.452 309.556 263.776 355.472 263.776 484C263.776 485.857 264.514 487.637 265.826 488.95C267.139 490.262 268.92 491 270.776 491C272.633 491 274.413 490.262 275.726 488.95C277.039 487.637 277.776 485.857 277.776 484C277.776 358.344 296.796 313.956 310.688 281.544C321.788 255.676 329.796 236.984 320.076 192.74V192.74Z" fill="url(#paint0_linear)"/>
<defs>
<linearGradient id="paint0_linear" x1="432.528" y1="355.78" x2="79.464" y2="2.71198" gradientUnits="userSpaceOnUse">
<stop stop-color="#E95350"/>
<stop offset="1" stop-color="#117EC1"/>
</linearGradient>
</defs>
</svg>
